<?xml version="1.0" standalone="no"?>
<!DOCTYPE svg PUBLIC "-//W3C//DTD SVG 20010904//EN"
 "http://www.w3.org/TR/2001/REC-SVG-20010904/DTD/svg10.dtd">
<svg version="1.0" xmlns="http://www.w3.org/2000/svg"
 width="500.000000pt" height="500.000000pt" viewBox="0 0 500.000000 500.000000"
 preserveAspectRatio="xMidYMid meet">
<metadata>
Created by potrace 1.11, written by Peter Selinger 2001-2013
</metadata>
<g transform="translate(0.000000,500.000000) scale(0.100000,-0.100000)"
fill="#000000" stroke="none">
<path d="M2250 4988 c-489 -49 -973 -253 -1355 -571 -94 -78 -283 -274 -357
-368 -231 -297 -404 -662 -481 -1019 -25 -112 -30 -142 -45 -280 -14 -130 -6
-547 13 -602 2 -7 6 -32 9 -55 3 -22 7 -52 10 -65 111 -523 329 -931 691
-1293 299 -301 642 -506 1048 -629 140 -43 221 -60 407 -87 135 -20 596 -16
663 6 7 2 30 6 52 9 91 11 249 51 390 98 446 147 858 434 1150 798 137 170
286 422 369 620 57 138 136 417 152 540 2 19 7 46 9 60 34 176 24 597 -20 825
-14 77 -68 281 -76 290 -5 5 -9 16 -9 25 0 28 -89 241 -149 355 -90 173 -75
161 -140 110 -31 -24 -82 -56 -113 -70 l-57 -26 62 -122 c75 -147 96 -195 137
-312 32 -93 74 -256 85 -335 4 -24 8 -47 10 -50 10 -16 20 -186 20 -335 0
-170 -8 -294 -25 -370 -5 -22 -11 -57 -14 -77 -7 -47 -53 -220 -72 -273 -9
-22 -23 -62 -33 -90 -31 -86 -117 -258 -177 -356 -223 -362 -565 -672 -943
-851 -153 -73 -358 -144 -470 -163 -19 -3 -37 -7 -40 -9 -3 -2 -28 -7 -55 -10
-27 -4 -52 -9 -56 -11 -28 -17 -461 -27 -580 -13 -520 61 -982 285 -1340 647
-362 367 -582 825 -638 1331 -9 84 -9 407 1 487 12 101 36 229 58 308 11 41
22 82 24 92 9 48 82 231 134 338 188 385 498 717 878 942 200 117 442 210 673
257 165 34 250 41 460 41 177 -1 245 -6 380 -31 41 -7 89 -16 105 -19 150 -27
484 -158 616 -241 21 -13 41 -24 43 -24 3 0 16 25 30 56 14 30 46 82 70 114
l45 59 -83 46 c-277 151 -591 256 -866 290 -30 4 -64 9 -75 12 -38 9 -441 10
-525 1z"/>
<path d="M4132 4600 c-23 -5 -66 -22 -94 -37 -229 -124 -276 -427 -95 -614 95
-99 250 -142 378 -105 291 85 384 439 172 652 -89 89 -234 131 -361 104z"/>
<path d="M2339 4316 c-2 -2 -29 -6 -60 -9 -31 -4 -78 -11 -103 -17 -26 -6 -62
-13 -82 -16 -70 -11 -281 -85 -384 -135 -442 -215 -772 -589 -935 -1059 -20
-58 -35 -105 -34 -105 0 0 -4 -18 -10 -40 -67 -255 -64 -616 9 -897 146 -564
572 -1036 1120 -1241 100 -37 270 -83 342 -93 24 -3 72 -9 108 -13 138 -17
479 -2 549 24 8 3 30 8 48 11 67 11 278 85 380 133 219 105 446 281 605 468
84 99 180 247 246 378 60 122 129 329 148 450 3 17 10 53 15 80 19 88 19 396
-1 525 -10 64 -20 125 -23 135 -4 11 -8 32 -11 46 -10 61 -81 253 -130 354
-260 532 -735 888 -1336 1001 -73 14 -450 30 -461 20z"/>
</g>
</svg>
